<?xml version="1.0" encoding="utf-8"?>
<!-- Generator: Adobe Illustrator 24.3.0, SVG Export Plug-In . SVG Version: 6.00 Build 0)  -->
<svg version="1.1" xmlns="http://www.w3.org/2000/svg" xmlns:xlink="http://www.w3.org/1999/xlink" x="0px" y="0px"
	 viewBox="0 0 750 500" style="enable-background:new 0 0 750 500;" xml:space="preserve">
<style type="text/css">
	.st0{fill:#081319;}
	.st1{clip-path:url(#SVGID_2_);}
	.st2{opacity:0.32;fill:url(#SVGID_3_);}
	.st3{opacity:0.73;fill:url(#SVGID_4_);}
	.st4{opacity:0.28;fill:url(#SVGID_5_);}
	.st5{opacity:0.13;fill:url(#SVGID_6_);}
	.st6{opacity:0.16;fill:url(#SVGID_7_);}
	.st7{opacity:0.32;fill:url(#SVGID_8_);}
	.st8{opacity:0.32;fill:url(#SVGID_9_);}
	.st9{opacity:0.3;fill:url(#SVGID_10_);}
	.st10{opacity:0.23;fill:url(#SVGID_11_);}
	.st11{opacity:0.14;fill:url(#SVGID_12_);}
	.st12{opacity:0.35;}
	.st13{fill:#FFFFFF;}
	.st14{opacity:0.29;fill:url(#SVGID_13_);}
	.st15{opacity:0.33;fill:url(#SVGID_14_);}
	.st16{opacity:0.41;}
	.st17{fill:none;stroke:#FFFFFF;stroke-width:0.25;stroke-miterlimit:10;}
	.st18{opacity:0.43;fill:none;stroke:#FFFFFF;stroke-width:0.25;stroke-miterlimit:10;}
	.st19{fill:url(#SVGID_15_);}
	.st20{fill:url(#SVGID_16_);}
	.st21{opacity:0.44;}
	.st22{fill:url(#SVGID_17_);}
	.st23{fill:url(#SVGID_18_);}
	.st24{fill:url(#SVGID_19_);}
	.st25{fill:url(#SVGID_20_);}
	.st26{fill:url(#SVGID_21_);}
	.st27{fill:url(#SVGID_22_);}
	.st28{fill:url(#SVGID_23_);}
	.st29{fill:url(#SVGID_24_);}
	.st30{fill:url(#SVGID_25_);}
</style>
<g id="BACKGROUND">
</g>
<g id="OBJECTS">
	<rect class="st0" width="750" height="500"/>
	<g>
		<g>
			<defs>
				<rect id="SVGID_1_" width="750" height="500"/>
			</defs>
			<clipPath id="SVGID_2_">
				<use xlink:href="#SVGID_1_"  style="overflow:visible;"/>
			</clipPath>
			<g class="st1">
				<linearGradient id="SVGID_3_" gradientUnits="userSpaceOnUse" x1="684.1936" y1="-52.1311" x2="259.7953" y2="466.5781">
					<stop  offset="0" style="stop-color:#3A1C53;stop-opacity:0.59"/>
					<stop  offset="0.1109" style="stop-color:#311649;stop-opacity:0.6355"/>
					<stop  offset="0.3691" style="stop-color:#230D38;stop-opacity:0.7413"/>
					<stop  offset="0.6513" style="stop-color:#1A072E;stop-opacity:0.857"/>
					<stop  offset="1" style="stop-color:#17052B"/>
				</linearGradient>
				<path class="st2" d="M750,0H344.72c25.32,50.69,64.51,142.4,47.68,196.06c-24.15,77.03,31.29,136.73,188.84,70.69
					c76.83-32.2,127.88-46.35,168.76-36.53V0z"/>
				<linearGradient id="SVGID_4_" gradientUnits="userSpaceOnUse" x1="174.7294" y1="168.3903" x2="750" y2="168.3903">
					<stop  offset="0" style="stop-color:#000000;stop-opacity:0.32"/>
					<stop  offset="0.3463" style="stop-color:#0C0316;stop-opacity:0.5555"/>
					<stop  offset="0.7129" style="stop-color:#140425;stop-opacity:0.8048"/>
					<stop  offset="1" style="stop-color:#17052B"/>
				</linearGradient>
				<path class="st3" d="M309.93,150.48c131.36-53.69,172.73,16.67,142.95,95.75c-52.57,139.58,210.95,99.86,297.12,1.53V0H199.68
					C133.3,105.09,209.44,191.55,309.93,150.48z"/>
				<linearGradient id="SVGID_5_" gradientUnits="userSpaceOnUse" x1="549.0441" y1="-106.3304" x2="325.3526" y2="558.0677">
					<stop  offset="0" style="stop-color:#250C3F"/>
					<stop  offset="0.527" style="stop-color:#FF7900"/>
					<stop  offset="1" style="stop-color:#FF7C5F"/>
				</linearGradient>
				<path class="st4" d="M300.14,68.1c103.5-20.03,189.19-15.58,182.52,99.05c-6.68,114.63,87.92,124.64,154.69,58.98
					c41.57-40.88,85.3-51.12,112.65-26.99V0H209.44C209.28,24.29,217.09,84.18,300.14,68.1z"/>
				<linearGradient id="SVGID_6_" gradientUnits="userSpaceOnUse" x1="548.4413" y1="-168.5342" x2="473.3205" y2="332.2692">
					<stop  offset="0" style="stop-color:#250C3F"/>
					<stop  offset="0.527" style="stop-color:#FF7900"/>
					<stop  offset="1" style="stop-color:#FF7C5F"/>
				</linearGradient>
				<path class="st5" d="M394.18,90.77c71.2-60.64,160.71-38.91,137.44,30.83c-26.71,80.06,86.81,110.11,134.66-12.03
					C679.63,75.49,721.93,56.98,750,86.7V0H291.25C241.3,101.49,320.17,153.8,394.18,90.77z"/>
				<linearGradient id="SVGID_7_" gradientUnits="userSpaceOnUse" x1="551.5947" y1="-38.385" x2="544.9172" y2="88.4853">
					<stop  offset="0" style="stop-color:#FF7C5F"/>
					<stop  offset="0.5" style="stop-color:#FF7900"/>
					<stop  offset="1" style="stop-color:#FF7900"/>
				</linearGradient>
				<path class="st6" d="M706.75,0H392.4c5.67,21.15,22.92,49.59,75.29,33.61C546.99,9.4,585.86,9.79,614.6,53.64
					C641.63,94.88,696.81,70.48,706.75,0z"/>
				<linearGradient id="SVGID_8_" gradientUnits="userSpaceOnUse" x1="364.0205" y1="139.7635" x2="114.8699" y2="477.576">
					<stop  offset="0" style="stop-color:#1D0F29;stop-opacity:0.59"/>
					<stop  offset="0.3777" style="stop-color:#19082A;stop-opacity:0.7449"/>
					<stop  offset="1" style="stop-color:#17052B"/>
				</linearGradient>
				<path class="st7" d="M449.54,453.09c0,0-58.18-34.79-74.54-125.7c-16.36-90.91-45.58-142.91-225.39-131.34
					C71.66,201.08,26.34,178.75,0,151.85V500h453.44C451.22,474.73,449.54,453.09,449.54,453.09z"/>
				<linearGradient id="SVGID_9_" gradientUnits="userSpaceOnUse" x1="160.9165" y1="501.0485" x2="330.1791" y2="115.7864">
					<stop  offset="0" style="stop-color:#3A1C53;stop-opacity:0.59"/>
					<stop  offset="0.1109" style="stop-color:#311649;stop-opacity:0.6355"/>
					<stop  offset="0.3691" style="stop-color:#230D38;stop-opacity:0.7413"/>
					<stop  offset="0.6513" style="stop-color:#1A072E;stop-opacity:0.857"/>
					<stop  offset="1" style="stop-color:#17052B"/>
				</linearGradient>
				<path class="st8" d="M305.35,324.88c-120.09,15.87-160.2-36.93-169.53-116.21c-10.11-85.89-109.89-87.16-138.09-33.85V500
					h470.14C488.25,441.09,515.61,297.09,305.35,324.88z"/>
				<linearGradient id="SVGID_10_" gradientUnits="userSpaceOnUse" x1="174.0279" y1="591.9015" x2="461.554" y2="-126.9139">
					<stop  offset="0" style="stop-color:#250C3F"/>
					<stop  offset="0.527" style="stop-color:#FF7900"/>
					<stop  offset="1" style="stop-color:#FF7C5F"/>
				</linearGradient>
				<path class="st9" d="M342.43,429.37c-157.56,88.73-37.16-92.91-130.08-156.72C154.18,232.71,38.96,298.13,0,266v234h515.18
					C522.23,422.71,442.32,373.11,342.43,429.37z"/>
				<linearGradient id="SVGID_11_" gradientUnits="userSpaceOnUse" x1="-0.0628" y1="687.8885" x2="461.0906" y2="-101.2336">
					<stop  offset="0" style="stop-color:#250C3F"/>
					<stop  offset="0.527" style="stop-color:#FF7900"/>
					<stop  offset="0.9993" style="stop-color:#FF7C5F"/>
				</linearGradient>
				<path class="st10" d="M259.19,398.29c-64.37,45.5-153.16,25.53-157.6-77.69C97.86,233.9,23.66,244.24,0,249.77V500h365.7
					C403.62,399.89,317.05,357.39,259.19,398.29z"/>
				<linearGradient id="SVGID_12_" gradientUnits="userSpaceOnUse" x1="-75.7701" y1="672.3064" x2="142.532" y2="390.7279">
					<stop  offset="0" style="stop-color:#250C3F"/>
					<stop  offset="0.527" style="stop-color:#FF7900"/>
					<stop  offset="0.9973" style="stop-color:#FF7C5F"/>
				</linearGradient>
				<path class="st11" d="M76.06,413.83c8.32-59.1-53.27-74.92-76.06-64.98V500h232.81C179.28,393.02,62.87,507.5,76.06,413.83z"/>
				<g class="st12">
					<path class="st13" d="M410.25,541.64c-1.42-29.58-10.1-50.46-26.53-63.83c-15.26-12.43-37.67-18.36-68.53-18.12
						c-27.57,0.21-59.28,5.2-89.95,10.04c-33.05,5.21-67.24,10.61-96.83,10.15c-33.28-0.51-56.97-8.52-72.41-24.5
						c-23.92-24.74-29.29-69.25-16.42-136.07c10.64-55.27,4.77-92.48-17.46-110.6c-16.22-13.22-38.32-13.5-54-11.4
						c-17.02,2.27-30.38,7.75-30.51,7.81l-0.19-0.46c0.13-0.06,13.54-5.56,30.62-7.84c15.79-2.11,38.04-1.83,54.4,11.51
						c22.39,18.25,28.32,55.62,17.64,111.08c-12.83,66.64-7.51,111.01,16.29,135.62c15.35,15.88,38.92,23.84,72.06,24.35
						c29.57,0.44,63.72-4.93,96.75-10.14c30.69-4.84,62.42-9.84,90.02-10.04c30.99-0.24,53.49,5.73,68.85,18.24
						c16.55,13.47,25.28,34.47,26.71,64.2L410.25,541.64z"/>
				</g>
				<g class="st12">
					<path class="st13" d="M410.25,552.44c-1.42-29.58-10.1-50.46-26.53-63.83c-15.26-12.42-37.67-18.34-68.53-18.12
						c-27.57,0.21-59.28,5.2-89.95,10.04c-33.05,5.21-67.24,10.6-96.83,10.15c-33.28-0.51-56.97-8.52-72.41-24.5
						c-23.92-24.74-29.29-69.25-16.42-136.07c10.64-55.27,4.77-92.48-17.46-110.6C5.9,206.27-16.21,206-31.9,208.1
						c-17.02,2.28-30.36,7.75-30.5,7.81l-0.19-0.46c0.13-0.06,13.54-5.56,30.62-7.84c15.79-2.11,38.04-1.83,54.4,11.51
						c22.39,18.25,28.32,55.62,17.64,111.08c-12.83,66.64-7.51,111.01,16.29,135.62c15.35,15.88,38.92,23.84,72.06,24.35
						c29.57,0.46,63.72-4.93,96.75-10.14c30.69-4.84,62.42-9.84,90.02-10.04c30.96-0.2,53.49,5.74,68.85,18.24
						c16.55,13.47,25.28,34.47,26.71,64.2L410.25,552.44z"/>
				</g>
				<g class="st12">
					<path class="st13" d="M701.87,154.84c-10.73,0-19.93-2.17-27.57-6.51c-23.05-13.09-31.74-46.15-25.81-98.26
						c4.48-39.38-3.34-65.88-23.24-78.78c-20.16-13.06-52.98-12.44-97.55,1.85C488-14.13,438.98,9.42,382,43.12
						c-25.49,15.08-48.33,17.54-67.88,7.32c-22.63-11.83-36.72-38.77-44.55-59.29c-8.48-22.22-11.89-42.61-12-44.22l0.5-0.04
						c0.12,1.6,3.51,21.91,11.97,44.08c7.8,20.44,21.83,47.27,44.32,59.03c19.39,10.13,42.06,7.67,67.4-7.31
						c57.01-33.72,106.06-57.28,145.8-70.02c44.72-14.34,77.68-14.95,97.98-1.8c20.08,13.01,27.97,39.67,23.47,79.26
						c-5.9,51.89,2.7,84.79,25.56,97.77c21.47,12.19,55.45,7.07,101.01-15.23c39.17-19.17,79.02-47.28,105.54-67.49l0.3,0.4
						c-26.54,20.22-66.41,48.35-105.62,67.54C746.22,147.58,721.5,154.84,701.87,154.84z"/>
				</g>
				<g class="st12">
					<path class="st13" d="M702.87,135.17c-10.73,0-19.93-2.17-27.57-6.51c-23.05-13.1-31.74-46.16-25.81-98.26
						c4.48-39.38-3.34-65.88-23.24-78.78c-20.16-13.07-52.98-12.44-97.55,1.85C489-33.79,439.98-10.25,383,23.46
						C357.5,38.53,334.66,41,315.12,30.78c-22.63-11.83-36.72-38.77-44.55-59.29c-8.48-22.22-11.89-42.6-12-44.22l0.5-0.04
						c0.12,1.6,3.51,21.91,11.97,44.08c7.8,20.44,21.83,47.27,44.32,59.03c19.39,10.13,42.06,7.67,67.4-7.31
						C439.76-10.69,488.81-34.25,528.54-47c44.72-14.34,77.68-14.95,97.98-1.8c20.08,13.01,27.97,39.67,23.47,79.26
						c-5.9,51.89,2.7,84.79,25.56,97.77C697.01,140.42,731,135.3,776.55,113c39.17-19.17,79.02-47.28,105.54-67.49l0.3,0.4
						c-26.54,20.22-66.41,48.35-105.62,67.54C747.22,127.92,722.5,135.17,702.87,135.17z"/>
				</g>
				<linearGradient id="SVGID_13_" gradientUnits="userSpaceOnUse" x1="693.4836" y1="312.6937" x2="660.4866" y2="661.6614">
					<stop  offset="0" style="stop-color:#3A1C53;stop-opacity:0.59"/>
					<stop  offset="0.3168" style="stop-color:#2A1140;stop-opacity:0.7199"/>
					<stop  offset="0.7" style="stop-color:#1C0831;stop-opacity:0.877"/>
					<stop  offset="1" style="stop-color:#17052B"/>
				</linearGradient>
				<path class="st14" d="M750,500v-82c-31.35-19.94-107.63-62.57-134.76-24.83c-14.9,20.73,6.78,67.45,4.02,106.82H750z"/>
				<linearGradient id="SVGID_14_" gradientUnits="userSpaceOnUse" x1="80.0942" y1="131.7612" x2="35.0296" y2="-130.7406">
					<stop  offset="0" style="stop-color:#3A1C53;stop-opacity:0.59"/>
					<stop  offset="0.3168" style="stop-color:#2A1140;stop-opacity:0.7199"/>
					<stop  offset="0.7" style="stop-color:#1C0831;stop-opacity:0.877"/>
					<stop  offset="1" style="stop-color:#17052B"/>
				</linearGradient>
				<path class="st15" d="M0,0v71.08c88.64,79.24,153.36,24.96,133.44-13.66C122.67,36.54,123.41,15.91,127.15,0H0z"/>
				<g class="st16">
					<path class="st17" d="M216.6-54.43c0,0-194.47-91.62-172.21,42.7C73.71,165.18-29.49,109.19-73.52,104.11
						c-56.96-6.58-53.69,154.67-53.69,154.67"/>
					<path class="st17" d="M219.77-52.34c0,0-192.29-85.91-170.5,45.54C77.67,164.57-20.98,115.34-68.93,108.4
						c-60.59-8.76-49.34,153.09-49.34,153.09"/>
					<path class="st17" d="M222.93-50.25c0,0-190.12-80.19-168.79,48.38C81.63,163.96-12.48,121.5-64.33,112.69
						c-64.21-10.91-44.98,151.52-44.98,151.52"/>
					<path class="st17" d="M226.09-48.16c0,0-187.95-74.48-167.09,51.22C85.6,163.35-3.97,127.69-59.74,116.99
						c-67.84-13.02-40.62,149.94-40.62,149.94"/>
					<path class="st17" d="M229.26-46.07c0,0-185.77-68.76-165.38,54.05C89.56,162.74,4.53,133.9-55.14,121.28
						c-71.47-15.12-36.26,148.36-36.26,148.36"/>
					<path class="st17" d="M232.42-43.98c0,0-183.6-63.05-163.67,56.89c24.78,149.22-55.72,127.2-119.29,112.66
						c-75.1-17.19-31.9,146.79-31.9,146.79"/>
					<path class="st17" d="M235.58-41.88c0,0-181.42-57.33-161.96,59.73c23.87,143.68-52.1,128.51-119.57,112.02
						c-78.74-19.24-27.55,145.21-27.55,145.21"/>
					<path class="st17" d="M238.75-39.79c0,0-179.25-51.61-160.26,62.57C101.45,160.91,30.02,152.6-41.35,134.16
						c-82.38-21.29-23.19,143.64-23.19,143.64"/>
					<path class="st17" d="M241.91-37.7c0,0-177.07-45.9-158.55,65.41c22.05,132.6-44.85,131.15-120.12,110.75
						c-86.02-23.32-18.83,142.06-18.83,142.06"/>
					<path class="st17" d="M245.07-35.61c0,0-174.9-40.18-156.84,68.24c21.14,127.06-41.24,132.49-120.39,110.11
						c-89.67-25.35-14.47,140.48-14.47,140.48"/>
					<path class="st17" d="M248.24-33.52c0,0-172.72-34.47-155.13,71.08c20.24,121.52-37.63,133.83-120.67,109.47
						c-93.32-27.37-10.12,138.91-10.12,138.91"/>
					<path class="st17" d="M251.4-31.42c0,0-170.55-28.75-153.43,73.92C117.3,158.47,63.96,177.67-22.97,151.33
						c-96.97-29.38-5.76,137.33-5.76,137.33"/>
					<path class="st17" d="M254.56-29.33c0,0-168.37-23.04-151.72,76.76c18.42,110.44-30.41,136.53-121.22,108.2
						c-100.63-31.39-1.4,135.75-1.4,135.75"/>
					<path class="st17" d="M257.73-27.24c0,0-166.2-17.32-150.01,79.59c17.51,104.9-26.85,138.03-121.49,107.57
						c-104.34-33.23,2.96,134.18,2.96,134.18"/>
					<path class="st17" d="M260.89-25.15c0,0-164.02-11.61-148.3,82.43c16.6,99.36-23.23,139.35-121.77,106.93
						c-107.98-35.28,7.32,132.6,7.32,132.6"/>
					<path class="st17" d="M264.05-23.06c0,0-161.85-5.89-146.6,85.27c15.69,93.82-19.61,140.67-122.05,106.29
						C-116.21,131.18,7.09,299.53,7.09,299.53"/>
					<path class="st17" d="M267.22-20.97c0,0-159.68-0.18-144.89,88.11S106.34,209.12,0.01,172.8
						c-115.27-39.38,16.03,129.45,16.03,129.45"/>
				</g>
				<g>
					<path class="st18" d="M847.27,279.66c0,0-201.48-74.95-168.01,57.03c44.08,173.82-63.45,126.71-107.76,125.34
						c-57.31-1.77-29.18,128.05-29.18,128.05"/>
					<path class="st18" d="M850.6,281.48c0,0-197-69.83-164.23,59.32c42.71,168.38-61.99,126.22-111.14,124.81
						c-61.34-1.79-24.46,128.32-24.46,128.32"/>
					<path class="st18" d="M853.93,283.3c0,0-192.51-64.7-160.45,61.62c41.34,162.93-60.54,125.74-114.53,124.29
						c-65.37-1.81-19.74,128.6-19.74,128.6"/>
					<path class="st18" d="M857.25,285.11c0,0-188.03-59.58-156.68,63.92c39.97,157.49-59.08,125.26-117.91,123.76
						c-69.4-1.82-15.02,128.88-15.02,128.88"/>
					<path class="st18" d="M860.58,286.93c0,0-183.54-54.45-152.9,66.22c38.6,152.05-57.62,124.78-121.3,123.23
						c-73.43-1.84-10.3,129.16-10.3,129.16"/>
					<path class="st18" d="M863.91,288.75c0,0-179.06-49.33-149.12,68.51c37.23,146.6-56.16,124.29-124.68,122.71
						c-77.46-1.86-5.58,129.43-5.58,129.43"/>
					<path class="st18" d="M867.24,290.57c0,0-174.57-44.2-145.34,70.81c35.86,141.16-54.7,123.81-128.07,122.18
						c-81.49-1.88-0.86,129.71-0.86,129.71"/>
					<path class="st18" d="M870.57,292.39c0,0-170.09-39.08-141.56,73.11c34.49,135.72-53.24,123.33-131.45,121.66
						c-85.52-1.9,3.86,129.99,3.86,129.99"/>
					<path class="st18" d="M873.89,294.21c0,0-165.6-33.95-137.79,75.4c33.12,130.27-51.78,122.84-134.83,121.13
						c-89.55-1.91,8.58,130.26,8.58,130.26"/>
					<path class="st18" d="M877.22,296.02c0,0-161.11-28.83-134.01,77.7C774.96,498.56,692.89,496.09,605,494.33
						c-93.58-1.93,13.3,130.54,13.3,130.54"/>
					<path class="st18" d="M880.55,297.84c0,0-156.63-23.7-130.23,80c30.38,119.39-48.86,121.88-141.6,120.08
						c-97.61-1.95,18.02,130.82,18.02,130.82"/>
					<path class="st18" d="M883.88,299.66c0,0-152.14-18.58-126.45,82.29c29.01,113.94-47.41,121.4-144.99,119.55
						c-101.64-1.97,22.74,131.09,22.74,131.09"/>
					<path class="st18" d="M887.21,301.48c0,0-147.66-13.45-122.67,84.59c27.64,108.5-45.95,120.91-148.37,119.03
						c-105.67-1.99,27.47,131.37,27.47,131.37"/>
					<path class="st18" d="M890.53,303.3c0,0-143.17-8.33-118.9,86.89c26.27,103.06-44.49,120.43-151.75,118.5
						c-109.71-2,32.19,131.65,32.19,131.65"/>
					<path class="st18" d="M893.86,305.12c0,0-138.69-3.2-115.12,89.18c24.9,97.61-43.03,119.95-155.14,117.98
						c-113.74-2.02,36.91,131.92,36.91,131.92"/>
					<path class="st18" d="M897.19,306.93c0,0-134.2,1.92-111.34,91.48c23.53,92.17-41.57,119.47-158.52,117.45
						c-117.77-2.04,41.63,132.2,41.63,132.2"/>
					<path class="st18" d="M900.52,308.75c0,0-129.72,7.05-107.56,93.78c22.16,86.73-40.11,118.98-161.91,116.93
						s46.35,132.48,46.35,132.48"/>
				</g>
				<linearGradient id="SVGID_15_" gradientUnits="userSpaceOnUse" x1="142.8679" y1="155.3327" x2="128.6574" y2="305.9641">
					<stop  offset="0" style="stop-color:#FFFFFF;stop-opacity:0.59"/>
					<stop  offset="0.1583" style="stop-color:#C6C2CB;stop-opacity:0.6549"/>
					<stop  offset="0.3235" style="stop-color:#91899B;stop-opacity:0.7226"/>
					<stop  offset="0.484" style="stop-color:#665A73;stop-opacity:0.7884"/>
					<stop  offset="0.6356" style="stop-color:#433554;stop-opacity:0.8506"/>
					<stop  offset="0.7763" style="stop-color:#2B1B3D;stop-opacity:0.9083"/>
					<stop  offset="0.9019" style="stop-color:#1C0B30;stop-opacity:0.9598"/>
					<stop  offset="1" style="stop-color:#17052B"/>
				</linearGradient>
				<path class="st19" d="M142.93,217.43c0,3.27-2.65,5.92-5.92,5.92c-3.27,0-5.92-2.65-5.92-5.92s2.65-5.92,5.92-5.92
					C140.28,211.51,142.93,214.16,142.93,217.43z"/>
				<linearGradient id="SVGID_16_" gradientUnits="userSpaceOnUse" x1="618.3719" y1="343.8776" x2="601.0612" y2="527.3724">
					<stop  offset="0" style="stop-color:#FFFFFF;stop-opacity:0.59"/>
					<stop  offset="0.1583" style="stop-color:#C6C2CB;stop-opacity:0.6549"/>
					<stop  offset="0.3235" style="stop-color:#91899B;stop-opacity:0.7226"/>
					<stop  offset="0.484" style="stop-color:#665A73;stop-opacity:0.7884"/>
					<stop  offset="0.6356" style="stop-color:#433554;stop-opacity:0.8506"/>
					<stop  offset="0.7763" style="stop-color:#2B1B3D;stop-opacity:0.9083"/>
					<stop  offset="0.9019" style="stop-color:#1C0B30;stop-opacity:0.9598"/>
					<stop  offset="1" style="stop-color:#17052B"/>
				</linearGradient>
				<path class="st20" d="M618.45,419.52c0,3.98-3.23,7.21-7.21,7.21c-3.98,0-7.21-3.23-7.21-7.21c0-3.98,3.23-7.21,7.21-7.21
					C615.22,412.31,618.45,415.54,618.45,419.52z"/>
				<g class="st21">
					<path class="st13" d="M613.8,39.38c0.58,0.58,1.51,0.58,2.09,0c0.58-0.58,0.58-1.51,0-2.09c-0.58-0.58-1.51-0.58-2.09,0
						C613.22,37.87,613.22,38.8,613.8,39.38z"/>
					<path class="st13" d="M605.17,48c-0.58-0.58-1.51-0.58-2.09,0c-0.58,0.58-0.58,1.51,0,2.09c0.58,0.58,1.51,0.58,2.09,0
						C605.75,49.51,605.75,48.58,605.17,48z"/>
					<path class="st13" d="M594.46,58.71c-0.58-0.58-1.51-0.58-2.09,0c-0.58,0.58-0.58,1.51,0,2.09c0.58,0.58,1.51,0.58,2.09,0
						C595.04,60.22,595.04,59.29,594.46,58.71z"/>
					<path class="st13" d="M583.75,69.42c-0.58-0.58-1.51-0.58-2.09,0c-0.58,0.58-0.58,1.51,0,2.09c0.58,0.58,1.51,0.58,2.09,0
						C584.33,70.93,584.33,70,583.75,69.42z"/>
					<path class="st13" d="M573.04,80.13c-0.58-0.58-1.51-0.58-2.09,0c-0.58,0.58-0.58,1.51,0,2.09c0.58,0.58,1.51,0.58,2.09,0
						C573.62,81.64,573.62,80.71,573.04,80.13z"/>
				</g>
				
					<linearGradient id="SVGID_17_" gradientUnits="userSpaceOnUse" x1="580.2196" y1="178.6543" x2="619.1956" y2="245.0291" gradientTransform="matrix(0.974 -0.2264 0.2264 0.974 21.8293 231.1801)">
					<stop  offset="0" style="stop-color:#FFFFFF;stop-opacity:0.59"/>
					<stop  offset="0.1583" style="stop-color:#C6C2CB;stop-opacity:0.6549"/>
					<stop  offset="0.3235" style="stop-color:#91899B;stop-opacity:0.7226"/>
					<stop  offset="0.484" style="stop-color:#665A73;stop-opacity:0.7884"/>
					<stop  offset="0.6356" style="stop-color:#433554;stop-opacity:0.8506"/>
					<stop  offset="0.7763" style="stop-color:#2B1B3D;stop-opacity:0.9083"/>
					<stop  offset="0.9019" style="stop-color:#1C0B30;stop-opacity:0.9598"/>
					<stop  offset="1" style="stop-color:#17052B"/>
				</linearGradient>
				<path class="st22" d="M633.84,284.97l-0.96-5.02l5.07,0.63L633.84,284.97z"/>
				
					<linearGradient id="SVGID_18_" gradientUnits="userSpaceOnUse" x1="1135.228" y1="-394.2802" x2="1174.2034" y2="-327.9064" gradientTransform="matrix(-0.974 0.2264 -0.2264 -0.974 1300.0189 -513.7631)">
					<stop  offset="0" style="stop-color:#FFFFFF;stop-opacity:0.59"/>
					<stop  offset="0.1583" style="stop-color:#C6C2CB;stop-opacity:0.6549"/>
					<stop  offset="0.3235" style="stop-color:#91899B;stop-opacity:0.7226"/>
					<stop  offset="0.484" style="stop-color:#665A73;stop-opacity:0.7884"/>
					<stop  offset="0.6356" style="stop-color:#433554;stop-opacity:0.8506"/>
					<stop  offset="0.7763" style="stop-color:#2B1B3D;stop-opacity:0.9083"/>
					<stop  offset="0.9019" style="stop-color:#1C0B30;stop-opacity:0.9598"/>
					<stop  offset="1" style="stop-color:#17052B"/>
				</linearGradient>
				<path class="st23" d="M277.14,116.14l0.96,5.02l-5.07-0.63L277.14,116.14z"/>
				
					<linearGradient id="SVGID_19_" gradientUnits="userSpaceOnUse" x1="289.4296" y1="-156.4273" x2="328.4045" y2="-90.0543" gradientTransform="matrix(0.7295 0.684 -0.684 0.7295 346.508 324.2159)">
					<stop  offset="0" style="stop-color:#FFFFFF;stop-opacity:0.59"/>
					<stop  offset="0.1583" style="stop-color:#C6C2CB;stop-opacity:0.6549"/>
					<stop  offset="0.3235" style="stop-color:#91899B;stop-opacity:0.7226"/>
					<stop  offset="0.484" style="stop-color:#665A73;stop-opacity:0.7884"/>
					<stop  offset="0.6356" style="stop-color:#433554;stop-opacity:0.8506"/>
					<stop  offset="0.7763" style="stop-color:#2B1B3D;stop-opacity:0.9083"/>
					<stop  offset="0.9019" style="stop-color:#1C0B30;stop-opacity:0.9598"/>
					<stop  offset="1" style="stop-color:#17052B"/>
				</linearGradient>
				<path class="st24" d="M658.96,419.61l3.64-3.59l2.29,4.57L658.96,419.61z"/>
				
					<linearGradient id="SVGID_20_" gradientUnits="userSpaceOnUse" x1="1088.7765" y1="-521.9651" x2="1127.7509" y2="-455.5931" gradientTransform="matrix(-0.8175 -0.5758 0.5758 -0.8176 1216.7029 242.9645)">
					<stop  offset="0" style="stop-color:#FFFFFF;stop-opacity:0.59"/>
					<stop  offset="0.1583" style="stop-color:#C6C2CB;stop-opacity:0.6549"/>
					<stop  offset="0.3235" style="stop-color:#91899B;stop-opacity:0.7226"/>
					<stop  offset="0.484" style="stop-color:#665A73;stop-opacity:0.7884"/>
					<stop  offset="0.6356" style="stop-color:#433554;stop-opacity:0.8506"/>
					<stop  offset="0.7763" style="stop-color:#2B1B3D;stop-opacity:0.9083"/>
					<stop  offset="0.9019" style="stop-color:#1C0B30;stop-opacity:0.9598"/>
					<stop  offset="1" style="stop-color:#17052B"/>
				</linearGradient>
				<path class="st25" d="M30.1,30.59L27,34.65l-2.91-4.2L30.1,30.59z"/>
				
					<linearGradient id="SVGID_21_" gradientUnits="userSpaceOnUse" x1="388.0463" y1="-292.8964" x2="427.0218" y2="-226.5223" gradientTransform="matrix(0.9952 -0.0979 0.0979 0.9952 -73.3027 746.4946)">
					<stop  offset="0" style="stop-color:#FFFFFF;stop-opacity:0.59"/>
					<stop  offset="0.1583" style="stop-color:#C6C2CB;stop-opacity:0.6549"/>
					<stop  offset="0.3235" style="stop-color:#91899B;stop-opacity:0.7226"/>
					<stop  offset="0.484" style="stop-color:#665A73;stop-opacity:0.7884"/>
					<stop  offset="0.6356" style="stop-color:#433554;stop-opacity:0.8506"/>
					<stop  offset="0.7763" style="stop-color:#2B1B3D;stop-opacity:0.9083"/>
					<stop  offset="0.9019" style="stop-color:#1C0B30;stop-opacity:0.9598"/>
					<stop  offset="1" style="stop-color:#17052B"/>
				</linearGradient>
				<path class="st26" d="M289.14,428.89l-0.3-5.1l4.95,1.28L289.14,428.89z"/>
				
					<linearGradient id="SVGID_22_" gradientUnits="userSpaceOnUse" x1="1180.6285" y1="-320.2917" x2="1219.6052" y2="-253.9156" gradientTransform="matrix(0.4076 0.9132 -0.9132 0.4075 -200.0588 -823.943)">
					<stop  offset="0" style="stop-color:#FFFFFF;stop-opacity:0.59"/>
					<stop  offset="0.1583" style="stop-color:#C6C2CB;stop-opacity:0.6549"/>
					<stop  offset="0.3235" style="stop-color:#91899B;stop-opacity:0.7226"/>
					<stop  offset="0.484" style="stop-color:#665A73;stop-opacity:0.7884"/>
					<stop  offset="0.6356" style="stop-color:#433554;stop-opacity:0.8506"/>
					<stop  offset="0.7763" style="stop-color:#2B1B3D;stop-opacity:0.9083"/>
					<stop  offset="0.9019" style="stop-color:#1C0B30;stop-opacity:0.9598"/>
					<stop  offset="1" style="stop-color:#17052B"/>
				</linearGradient>
				<path class="st27" d="M563.94,132.12l4.75-1.9l0.35,5.1L563.94,132.12z"/>
				
					<linearGradient id="SVGID_23_" gradientUnits="userSpaceOnUse" x1="1192.4065" y1="111.1754" x2="1231.384" y2="177.5527" gradientTransform="matrix(0.4076 0.9132 -0.9132 0.4075 -200.0588 -823.943)">
					<stop  offset="0" style="stop-color:#FFFFFF;stop-opacity:0.59"/>
					<stop  offset="0.1583" style="stop-color:#C6C2CB;stop-opacity:0.6549"/>
					<stop  offset="0.3235" style="stop-color:#91899B;stop-opacity:0.7226"/>
					<stop  offset="0.484" style="stop-color:#665A73;stop-opacity:0.7884"/>
					<stop  offset="0.6356" style="stop-color:#433554;stop-opacity:0.8506"/>
					<stop  offset="0.7763" style="stop-color:#2B1B3D;stop-opacity:0.9083"/>
					<stop  offset="0.9019" style="stop-color:#1C0B30;stop-opacity:0.9598"/>
					<stop  offset="1" style="stop-color:#17052B"/>
				</linearGradient>
				<path class="st28" d="M174.73,318.7l4.75-1.9l0.35,5.1L174.73,318.7z"/>
				<linearGradient id="SVGID_24_" gradientUnits="userSpaceOnUse" x1="708.5063" y1="29.9083" x2="714.822" y2="156.2241">
					<stop  offset="0" style="stop-color:#3A1C53;stop-opacity:0.59"/>
					<stop  offset="0.1109" style="stop-color:#311649;stop-opacity:0.6355"/>
					<stop  offset="0.3691" style="stop-color:#230D38;stop-opacity:0.7413"/>
					<stop  offset="0.6513" style="stop-color:#1A072E;stop-opacity:0.857"/>
					<stop  offset="1" style="stop-color:#17052B"/>
				</linearGradient>
				<circle class="st29" cx="710.6" cy="71.85" r="10.62"/>
				<linearGradient id="SVGID_25_" gradientUnits="userSpaceOnUse" x1="55.817" y1="320.5581" x2="62.1328" y2="446.8739">
					<stop  offset="0" style="stop-color:#3A1C53;stop-opacity:0.59"/>
					<stop  offset="0.1109" style="stop-color:#311649;stop-opacity:0.6355"/>
					<stop  offset="0.3691" style="stop-color:#230D38;stop-opacity:0.7413"/>
					<stop  offset="0.6513" style="stop-color:#1A072E;stop-opacity:0.857"/>
					<stop  offset="1" style="stop-color:#17052B"/>
				</linearGradient>
				<circle class="st30" cx="57.91" cy="362.5" r="10.62"/>
			</g>
		</g>
	</g>
</g>
</svg>
