<svg xmlns="http://www.w3.org/2000/svg" viewBox="0 0 59.16 23.46"><defs><style>.cls-1{fill:#9e005d;stroke:#f9f9f9;}.cls-1,.cls-2,.cls-3{stroke-miterlimit:10;stroke-width:0.5px;}.cls-1,.cls-3,.cls-4{isolation:isolate;}.cls-2{fill:#fff;}.cls-2,.cls-3{stroke:#fff;}.cls-3{fill:#1b1464;}.cls-5{fill:#e6e6e6;}</style></defs><g id="Layer_2" data-name="Layer 2"><g id="Layer_1-2" data-name="Layer 1"><path class="cls-1" d="M20.43,17.61c4.52-3.63,4-7.61.23-6.85-2.89.58-3.48-1.08-5.12-3.65s-5.49-.69-8-2.2C3.39,2.35,3.31,6.49,3.27,9.27S-.36,13.53.34,17.07c.57,2.87,5,.35,9.33,2.81C15.53,23.21,16.32,20.9,20.43,17.61Z"/><path class="cls-2" d="M1.06,18.37A.11.11,0,0,1,1,18.19L4.23,15a.11.11,0,0,1,.15,0,.1.1,0,0,1,0,.14L1.14,18.34A.11.11,0,0,1,1.06,18.37Z"/><path class="cls-3" d="M17.08,23.11c-2.61.91-5.81-4.65-7.28-5.38-2.9-1.44-7.87-1-5.92-4.29.9-1.53,2.78-3.61,3.48-4.81C8.79,6.2,6,1.84,8.52.57s4.65,1.6,7.11,2.54c1.63.63,3.38.32,5,.64A2,2,0,0,1,22.15,6.5C18,14.2,21.5,21.56,17.08,23.11Z"/><g class="cls-4"><path class="cls-5" d="M27.34,7.44v.67H26.4v3h-.86v-3H24.6V7.44Z"/><path class="cls-5" d="M31,7.44v3.64h-.88l-1.6-2.47c0,.29,0,.56,0,.82v1.65h-.84V7.44h.92l1.56,2.45c0-.28,0-.54,0-.8V7.44Z"/><path class="cls-5" d="M34.08,7.44v.67h-.94v3h-.86v-3h-.94V7.44Z"/><path class="cls-5" d="M35.47,9.33V10H34V9.33Z"/><path class="cls-5" d="M38.23,7.44v.68H36.81V9h1.34v.68H36.81v1.39H36V7.44Z"/><path class="cls-5" d="M42.31,9.26a1.79,1.79,0,0,1-.55,1.38,2.15,2.15,0,0,1-2.76,0,1.79,1.79,0,0,1-.55-1.38A1.79,1.79,0,0,1,39,7.89a2.12,2.12,0,0,1,2.76,0A1.79,1.79,0,0,1,42.31,9.26Zm-.86,0a1.13,1.13,0,0,0-.3-.82,1,1,0,0,0-.77-.31,1,1,0,0,0-.76.31,1.25,1.25,0,0,0,0,1.65,1,1,0,0,0,.76.31,1,1,0,0,0,.77-.31A1.14,1.14,0,0,0,41.45,9.24Z"/><path class="cls-5" d="M45.68,11.08h-1l-.76-1.39h-.27v1.39h-.86V7.44H44.1a1.52,1.52,0,0,1,1,.26,1,1,0,0,1,.41.83,1.11,1.11,0,0,1-.14.56.92.92,0,0,1-.58.49ZM44,8.1h-.34V9H44a.71.71,0,0,0,.44-.1.47.47,0,0,0,0-.74A.78.78,0,0,0,44,8.1Z"/><path class="cls-5" d="M49.78,7.44l.27,3.64h-.84L49.07,8.6h0l-.79,2.48H47.6L46.81,8.6h0l-.14,2.48h-.84l.28-3.64h1.08l.76,2.39h0l.75-2.39Z"/><path class="cls-5" d="M52.61,10.84a1.54,1.54,0,0,1-1,.3,1.83,1.83,0,0,1-1.29-.55l.42-.62a1.8,1.8,0,0,0,.47.33,1.08,1.08,0,0,0,.48.13c.28,0,.49-.14.49-.37A.33.33,0,0,0,52,9.78a1.31,1.31,0,0,0-.27-.12l-.55-.21a2.09,2.09,0,0,1-.44-.26.93.93,0,0,1-.28-.71,1,1,0,0,1,.38-.79,1.4,1.4,0,0,1,1-.29,1.7,1.7,0,0,1,.64.13,1.48,1.48,0,0,1,.51.31l-.36.6a1.24,1.24,0,0,0-.81-.37c-.29,0-.48.12-.48.33a.38.38,0,0,0,.24.32l.13,0,.28.11.27.09a1.25,1.25,0,0,1,.5.3A1,1,0,0,1,53,10,1.06,1.06,0,0,1,52.61,10.84Z"/></g><g class="cls-4"><path class="cls-5" d="M26.23,14.91a.92.92,0,0,1-.6.16h-.78v-2.4h.64a1.14,1.14,0,0,1,.57.11.57.57,0,0,1,.26.49.56.56,0,0,1-.36.53h0a.59.59,0,0,1,.53.59A.64.64,0,0,1,26.23,14.91ZM25.82,13a.72.72,0,0,0-.33-.06h-.31v.76h.29a.59.59,0,0,0,.35-.07.38.38,0,0,0,.16-.32A.32.32,0,0,0,25.82,13ZM26,14a.89.89,0,0,0-.42-.08h-.37v.84h.37a.75.75,0,0,0,.42-.09.4.4,0,0,0,.17-.34A.39.39,0,0,0,26,14Z"/><path class="cls-5" d="M27.91,13.41h.35l-.8,1.94c-.11.28-.24.38-.43.38a1.42,1.42,0,0,1-.28,0l0,0,.07-.27a.38.38,0,0,0,.17,0,.18.18,0,0,0,.11,0,.29.29,0,0,0,.11-.17l.08-.22-.66-1.63h.35l.49,1.28Z"/><path class="cls-5" d="M30.39,14.78v.29H29.2v-2.4h.34v2.11Z"/><path class="cls-5" d="M31.93,15.07h-.32v-.21a.72.72,0,0,1-.53.25.64.64,0,0,1-.41-.14.49.49,0,0,1-.16-.37c0-.32.25-.49.65-.51h.44V14a.37.37,0,0,0-.41-.38.89.89,0,0,0-.5.15l-.1-.23a1.22,1.22,0,0,1,.62-.16.78.78,0,0,1,.55.18.81.81,0,0,1,.17.54Zm-.33-.79-.38,0c-.26,0-.38.11-.38.29s.13.28.34.28a.49.49,0,0,0,.42-.24Z"/><path class="cls-5" d="M33.76,13.41v1.66h-.32v-.24a.58.58,0,0,1-.51.28.54.54,0,0,1-.46-.19.87.87,0,0,1-.13-.51v-1h.33v1c0,.27.08.44.35.44s.41-.23.41-.53v-.89Z"/><path class="cls-5" d="M35.14,13.41l0,.31h0a.57.57,0,0,0-.18,0,.37.37,0,0,0-.28.14.81.81,0,0,0-.1.42v.82h-.33V13.42h.33v.25h0a.42.42,0,0,1,.41-.28l.15,0Z"/><path class="cls-5" d="M36.83,14.32H35.56a.5.5,0,0,0,.53.53.89.89,0,0,0,.54-.19l.14.19h0a1,1,0,0,1-.71.25.78.78,0,0,1-.6-.24.87.87,0,0,1-.23-.63.81.81,0,0,1,.84-.85.75.75,0,0,1,.56.22.75.75,0,0,1,.22.57Zm-.31-.22a.47.47,0,0,0-.13-.32.41.41,0,0,0-.34-.15.46.46,0,0,0-.36.15.54.54,0,0,0-.13.32Z"/><path class="cls-5" d="M38.45,15.07h-.32v-.21a.68.68,0,0,1-.52.25.64.64,0,0,1-.41-.14A.46.46,0,0,1,37,14.6c0-.32.24-.49.64-.51h.45V14a.37.37,0,0,0-.41-.38.89.89,0,0,0-.5.15l-.1-.23a1.22,1.22,0,0,1,.62-.16.73.73,0,0,1,.54.18.77.77,0,0,1,.18.54Zm-.33-.79-.39,0c-.25,0-.37.11-.37.29s.13.28.34.28a.49.49,0,0,0,.42-.24Z"/><path class="cls-5" d="M39.66,14.79l0,.26a.73.73,0,0,1-.3.06.42.42,0,0,1-.36-.17,1.07,1.07,0,0,1-.08-.5v-.75H38.7v-.27h.24v-.49h.34v.49h.39v.27h-.39v.75a.68.68,0,0,0,0,.3.17.17,0,0,0,.17.08l.15,0Z"/><path class="cls-5" d="M41.42,14.32H40.15a.5.5,0,0,0,.53.53.89.89,0,0,0,.54-.19l.14.19h0a1,1,0,0,1-.71.25.78.78,0,0,1-.6-.24.87.87,0,0,1-.23-.63.81.81,0,0,1,.84-.85.75.75,0,0,1,.56.22.75.75,0,0,1,.22.57Zm-.31-.22a.47.47,0,0,0-.13-.32.41.41,0,0,0-.34-.15.43.43,0,0,0-.35.15.49.49,0,0,0-.14.32Z"/><path class="cls-5" d="M44.29,12.67v1.42a1,1,0,0,1-.19.73,1,1,0,0,1-1.44,0,1,1,0,0,1-.19-.73V12.67h.34v1.59a.72.72,0,0,0,.11.34.61.61,0,0,0,.92,0,.45.45,0,0,0,.08-.17,1.31,1.31,0,0,0,0-.37V12.67Z"/><path class="cls-5" d="M46.2,15.07h-.33v-.92c0-.32-.07-.49-.35-.49s-.42.24-.42.58v.83h-.34V13.42h.34v.26h0a.58.58,0,0,1,.51-.29c.43,0,.59.26.59.7Z"/><path class="cls-5" d="M46.6,12.88a.21.21,0,0,1,.22-.21.2.2,0,0,1,.22.21.2.2,0,0,1-.22.2A.21.21,0,0,1,46.6,12.88Zm.39.54v1.65h-.33V13.42Z"/><path class="cls-5" d="M48.56,13.42h.35l-.69,1.65h-.29l-.69-1.65h.34l.49,1.24Z"/><path class="cls-5" d="M50.6,14.32H49.33a.5.5,0,0,0,.53.53,1,1,0,0,0,.55-.19l.14.19h0a1,1,0,0,1-.71.25.78.78,0,0,1-.6-.24.87.87,0,0,1-.23-.63.81.81,0,0,1,.84-.85.73.73,0,0,1,.56.22.75.75,0,0,1,.22.57Zm-.31-.22a.51.51,0,0,0-.12-.32.48.48,0,0,0-.7,0,.49.49,0,0,0-.14.32Z"/><path class="cls-5" d="M51.86,13.41l0,.31h0a.58.58,0,0,0-.19,0,.36.36,0,0,0-.27.14.81.81,0,0,0-.1.42v.82h-.33V13.42h.33v.25h0a.41.41,0,0,1,.41-.28l.15,0Z"/><path class="cls-5" d="M53,15a.69.69,0,0,1-.46.15.75.75,0,0,1-.64-.3l.16-.19a.66.66,0,0,0,.49.24c.17,0,.31-.07.31-.24a.21.21,0,0,0-.14-.19l-.08,0-.15-.05-.23-.08a.43.43,0,0,1-.26-.4.41.41,0,0,1,.16-.34.6.6,0,0,1,.4-.13.73.73,0,0,1,.56.21l-.14.21a.54.54,0,0,0-.41-.18c-.17,0-.27.07-.27.21s.12.18.33.24l.22.08a1,1,0,0,1,.19.12.42.42,0,0,1,.13.31A.44.44,0,0,1,53,15Z"/><path class="cls-5" d="M53.45,12.88a.2.2,0,0,1,.22-.21.2.2,0,0,1,.21.21.2.2,0,0,1-.21.2A.2.2,0,0,1,53.45,12.88Zm.38.54v1.65H53.5V13.42Z"/><path class="cls-5" d="M55.09,14.79l0,.26a.73.73,0,0,1-.3.06.39.39,0,0,1-.35-.17.93.93,0,0,1-.09-.5v-.75h-.24v-.27h.24v-.49h.34v.49h.39v.27h-.39v.75a.68.68,0,0,0,0,.3.17.17,0,0,0,.17.08l.15,0Z"/><path class="cls-5" d="M55.35,12.88a.2.2,0,0,1,.22-.21.2.2,0,0,1,.21.21.2.2,0,0,1-.21.2A.2.2,0,0,1,55.35,12.88Zm.38.54v1.65H55.4V13.42Z"/><path class="cls-5" d="M57.71,14.32H56.43a.51.51,0,0,0,.53.53,1,1,0,0,0,.55-.19l.14.19h0a1,1,0,0,1-.72.25.81.81,0,0,1-.6-.24.87.87,0,0,1-.23-.63.84.84,0,0,1,.24-.62.88.88,0,0,1,.6-.23.77.77,0,0,1,.57.22.79.79,0,0,1,.22.57Zm-.31-.22a.59.59,0,0,0-.13-.32.48.48,0,0,0-.7,0,.55.55,0,0,0-.14.32Z"/><path class="cls-5" d="M59,15a.71.71,0,0,1-.46.15.77.77,0,0,1-.65-.3l.16-.19a.68.68,0,0,0,.49.24c.18,0,.32-.07.32-.24a.23.23,0,0,0-.15-.19l-.08,0-.15-.05-.22-.08a.42.42,0,0,1-.26-.4.39.39,0,0,1,.16-.34.58.58,0,0,1,.39-.13.77.77,0,0,1,.57.21l-.14.21a.58.58,0,0,0-.42-.18c-.16,0-.26.07-.26.21s.11.18.32.24l.22.08a.62.62,0,0,1,.19.12.43.43,0,0,1,.14.31A.47.47,0,0,1,59,15Z"/></g></g></g></svg>