<svg xmlns="http://www.w3.org/2000/svg" viewBox="0 0 59 23.46"><defs><style>.cls-1{fill:#9e005d;}.cls-1,.cls-3,.cls-4,.cls-8{isolation:isolate;}.cls-2{fill:#fff;}.cls-2,.cls-3{stroke:#fff;stroke-miterlimit:10;stroke-width:0.5px;}.cls-3{fill:#1b1464;}.cls-4,.cls-8{opacity:0.73;fill:#e6e6e6;}.cls-4{font-size:5.28px;font-family:Gibson-SemiBold, Gibson;font-weight:600;}.cls-5{letter-spacing:-0.05em;}.cls-6{letter-spacing:0em;}.cls-7{letter-spacing:-0.01em;}.cls-8{font-size:3.47px;font-family:Gibson;}.cls-9{letter-spacing:-0.01em;}.cls-10{letter-spacing:0em;}.cls-11{letter-spacing:-0.02em;}.cls-12{letter-spacing:-0.01em;}.cls-13{letter-spacing:-0.01em;}</style></defs><g id="Layer_2" data-name="Layer 2"><g id="Layer_1-2" data-name="Layer 1"><path class="cls-1" d="M20.18,17.61c4.52-3.63,4-7.61.23-6.85-2.89.58-3.48-1.08-5.12-3.65s-5.49-.69-8-2.2C3.14,2.35,3.06,6.49,3,9.27S-.61,13.53.09,17.07c.57,2.87,5,.35,9.33,2.81C15.28,23.21,16.07,20.9,20.18,17.61Z"/><path class="cls-2" d="M.81,18.37a.11.11,0,0,1-.07-.18L4,15a.11.11,0,0,1,.15,0,.1.1,0,0,1,0,.14L.89,18.34A.11.11,0,0,1,.81,18.37Z"/><path class="cls-3" d="M16.83,23.11C14.22,24,11,18.46,9.55,17.73c-2.9-1.44-7.87-1-5.92-4.29.9-1.53,2.78-3.61,3.48-4.81C8.54,6.2,5.74,1.84,8.27.57s4.65,1.6,7.11,2.54c1.63.63,3.38.32,5,.64A2,2,0,0,1,21.9,6.5C17.78,14.2,21.25,21.56,16.83,23.11Z"/><text class="cls-4" transform="translate(24.33 11.08)">TN<tspan class="cls-5" x="6.74" y="0">T</tspan><tspan class="cls-6" x="9.25" y="0">-</tspan><tspan class="cls-7" x="11.04" y="0">F</tspan><tspan class="cls-6" x="13.72" y="0">ORMS</tspan></text><text class="cls-8" transform="translate(24.33 15.07)"><tspan class="cls-9">B</tspan><tspan class="cls-10" x="2" y="0">y Lau</tspan><tspan class="cls-11" x="9.41" y="0">r</tspan><tspan x="10.52" y="0">ea</tspan><tspan class="cls-12" x="14.06" y="0">t</tspan><tspan x="15.11" y="0">e Uni</tspan><tspan class="cls-12" x="22.65" y="0">v</tspan><tspan x="24.29" y="0">e</tspan><tspan class="cls-13" x="26.13" y="0">r</tspan><tspan x="27.24" y="0">sities</tspan></text></g></g></svg>